<svg id="svg" version="1.1" viewBox="0 0 294.6428571428571 300" width="294.6428571428571" height="300" xmlns="http://www.w3.org/2000/svg"><svg xmlns="http://www.w3.org/2000/svg"><defs><clipPath id="clip-1"><rect x="0" y="0" transform="scale(0.14881,0.14881)" width="1980" height="2016" fill="none"/></clipPath></defs><g clip-path="url(#clip-1)" fill="none" fill-rule="nonzero" stroke="none" stroke-width="1" stroke-linecap="butt" stroke-linejoin="miter" stroke-miterlimit="10" stroke-dasharray="" stroke-dashoffset="0" font-family="none" font-weight="none" font-size="none" text-anchor="none" style="mix-blend-mode: normal"><path d="M178.58185,25.52381c16.18899,-0.03065 31.40774,0.05655 46.99405,5.00863c2.1622,0.68676 4.55506,1.18988 6.67708,1.94673c8.27381,2.95045 16.25744,6.74524 24.40923,10.04449c5.47768,2.21726 15.15476,5.58914 19.62798,9.32902c-1.70833,2.74613 -4.46726,5.46101 -6.67262,7.80699c-2.14881,2.28452 -4.35565,4.63378 -6.38542,7.02173c-4.08036,4.81756 -8.06101,9.71875 -11.94048,14.7003c-2.14881,2.81131 -4.3497,5.64926 -6.36905,8.55402c-1.41071,2.0317 -2.6875,4.19702 -4.20089,6.15238c-0.37798,0.48824 -0.87649,1.12545 -1.44494,1.3872c-1.41518,0.65179 -11.58631,-4.20119 -13.6131,-4.96265c-1.58482,-0.59524 -3.36458,-1.14687 -5.04167,-1.38512c-3.97321,-0.56488 -10.43304,-0.58958 -14.33036,0.23259c-1.73363,0.36592 -3.43601,1.00104 -5.04762,1.73467c-12.37798,5.57321 -21.97321,15.92054 -26.59673,28.68393c2.4003,1.02411 8.33929,1.51131 11.51935,2.39196c9.74256,2.69807 19.42113,6.08631 28.34226,10.82857c14.57143,7.74673 21.43601,23.83259 27.4494,38.36682c3.07589,7.39583 5.97173,14.86607 8.68452,22.40327c0.78869,2.18006 1.85268,4.33185 2.5878,6.5119c1.76042,5.22768 3.87202,10.41369 5.4494,15.68899c-0.58333,0.0625 -1.70536,0.16667 -2.25149,0.10268c-3.75893,-0.4375 -15.85565,-2.37351 -18.68899,-3.99851c-0.68155,-2.68601 -0.65327,-5.42113 -0.96875,-8.26339c-0.77827,-7.01339 -0.87351,-18.90327 -4.85565,-24.78125c-3.0625,-3.76935 -9.48512,-6.44345 -14.06101,-6.92113c-8.97768,-0.93899 -13.64732,0.6994 -20.41071,6.08185c7.04762,5.15625 23.10119,10.26042 31.84226,10.5119c0.48363,11.31845 1.26488,22.62054 2.34673,33.89583c0.96875,9.52381 2.09524,18.77976 4.09077,28.15625c0.45089,2.1756 0.9628,4.33631 1.53869,6.48065c0.74256,2.76339 3.57887,10.01935 2.54167,12.46131c-0.15625,0.36607 -0.40327,0.62946 -0.79464,0.74702c-4.73512,1.4256 -38.08036,-15.00149 -43.70387,-17.86161c-3.03125,-1.63542 -6.02232,-3.0372 -9.04315,-4.62202c-3.3125,-1.77381 -6.57738,-3.63393 -9.79464,-5.57738c-1.75,-1.05357 -4.40923,-2.57887 -5.90923,-3.80357c-1.01786,-0.81696 -1.9003,-1.78869 -2.61607,-2.88095c-1.71875,-2.68452 -1.48065,-5.79911 -3.04167,-8.41667c-3.39732,0.90625 -7.01488,2.74256 -10.34077,3.72768c-15.13497,4.4881 -30.8756,8.60119 -46.54658,10.65476c-2.69688,0.35268 -5.78452,0.80655 -8.52664,0.76786c-0.51429,-0.00744 -1.1689,-0.22024 -1.48214,-0.6622c-0.43006,-0.60565 -0.10283,-1.48363 0.20967,-2.08631c1.16458,-2.24405 2.70729,-4.32887 4.07753,-6.44345c2.51696,-3.87798 4.43958,-8.11012 5.70372,-12.55655c2.2253,-7.98065 2.6186,-19.79315 0.02098,-27.58631c-3.10045,-9.30208 -3.68006,-16.11756 -3.79315,-25.91071c-0.32887,-2.72024 0.63795,-8.47173 -3.15863,-9.02827c-9.32649,-1.36607 -18.52664,2.87798 -24.12738,10.28571c-8.43423,11.15327 -4.68423,25.37054 -8.10089,38.25893c-3.89435,14.69048 -13.36295,29.2381 -26.41949,37.27381c-1.50104,0.92262 -11.40402,6.26637 -12.2381,4.54315c0.11622,-0.43601 0.43333,-0.89286 0.77827,-1.16518c7.00074,-5.54464 11.79568,-10.61756 15.42262,-19.04911c10.57723,-24.58482 -4.94137,-49.80655 -5.48408,-74.75893c-0.17738,-8.15833 0.59658,-15.93393 2.30521,-23.93452c1.66339,-8.28943 3.52113,-16.23095 6.72217,-24.0878c4.82366,-11.55015 13.79077,-23.95179 22.31771,-33.18661c9.39375,-10.28646 20.13393,-19.2567 31.92946,-26.66771c3.62872,-2.27679 7.29152,-4.38586 11.19479,-6.18244c2.05164,-0.86592 4.1369,-1.57247 6.25164,-2.29107c14.27128,-4.8494 28.95967,-9.21086 43.7067,-12.35491c4.16071,-0.88705 9.04018,-1.14673 13.25893,-1.31726zM107.67381,239.28869c18.07292,-3.29613 34.7564,-6.01339 50.7131,-15.45685c1.22768,-0.72768 7.56399,-4.80804 9.64881,-4.50298c2,1.875 2.4256,10.9003 3.35268,13.6622c14.36756,10.04018 29.63988,18.72321 45.61607,25.93452c5.58185,2.56399 10.50893,4.81399 16.32292,6.9494c-0.28869,-0.86458 -0.42857,-1.71577 -0.56696,-2.6131c-0.4747,-3.07589 -1.12798,-6.11161 -1.72173,-9.16667c-2.19345,-8.9375 -3.72173,-22.4256 -4.39286,-31.70387c-0.28423,-4.30655 -0.53571,-8.61607 -0.75446,-12.92708c-0.19494,-3.73363 -0.42113,-11.70685 -1.65179,-14.98214c-2.2753,-0.35268 -4.49851,-0.71875 -6.71726,-1.35119c-6.01637,-1.71726 -21.45685,-7.74107 -25.09524,-12.59524c-0.02381,-0.03274 -0.04762,-0.06696 -0.07143,-0.0997c1.5253,-3.79464 7.18304,-9.76488 11.06101,-11.18601c4.46131,-1.6369 11.9494,-1.53274 16.66667,-0.78423c3.05952,0.56994 5.5878,2.15625 8.30952,3.45089c4.6875,2.23065 6.53125,4.05804 8.5625,8.73958c3.96131,9.125 3.42411,21.0253 6.9628,29.92708c2.41369,1.67411 5.64732,1.91071 8.49107,2.25744c-2.27381,-7.64583 -5.28274,-14.94196 -8.03274,-22.5744c-4.62649,-12.83631 -9.67857,-26.8244 -18.54911,-37.44643c-2.85417,-3.19643 -6.19792,-6.07693 -9.55506,-8.71027c-9.36905,-7.34777 -20.75595,-13.45908 -32.37351,-16.19464c-2.36607,-0.55685 -7.18452,-0.50908 -9.67411,-0.45699c-2.6875,0.0622 -6.51637,0.06503 -9.08185,0.44271c-13.17262,1.94033 -27.60268,6.79955 -36.91979,16.73824c-6.49554,6.92798 -12.26667,16.09315 -14.53348,25.35952c-1.47247,6.01935 -1.39896,13.43006 -1.44226,19.58036c-0.02649,3.75149 1.1253,8.68006 1.96339,12.4003c2.08765,9.26339 3.52664,17.67411 -0.22083,26.78125c-1.92262,4.67262 -4.49777,6.68006 -6.31607,10.52827zM174.23065,31.29137c-2.52679,0.16399 -4.82143,0.16057 -7.26786,0.96086c-4.45833,6.41071 -5.65476,31.13929 -5.94345,39.62321l-0.21726,7.2625c-0.03125,1.1256 -0.0253,3.03423 -0.22619,4.07321l0.22024,-0.03884c1.79613,-0.32411 4.05804,-0.99792 5.87798,-1.46012c2.69345,-0.69152 5.42411,-1.22917 8.18006,-1.61057c11.45387,-1.5192 24.80208,0.18705 36.08185,2.43586c3.19345,0.63646 7.07589,1.47247 10.15923,2.49836c5.15625,1.63348 8.45982,2.81443 13.2619,5.18631c3.69494,-6.68408 8.32143,-12.35595 13.25298,-18.16339c3.00595,-3.54003 6.02381,-6.88125 9.25149,-10.22173c2.95238,-3.05655 6.45089,-5.85833 9.3006,-8.92857c-2.90774,-2.39286 -5.65327,-3.45134 -8.95536,-5.09375c-16.05506,-7.98497 -33.70685,-11.3939 -51.1622,-14.82336c-5.31994,-1.04509 -10.76935,-1.53348 -16.18006,-1.71696c-4.12649,-0.14003 -8.63839,0.24301 -12.71726,-0.09137c-0.69048,1.6564 -1.54315,3.24137 -2.18899,4.90982c-1.66815,4.32098 -2.76637,8.86101 -4.06845,13.29881c-0.45536,1.55268 -0.38393,5.61265 -1.74554,6.40193l-0.43601,-0.0064c-0.50149,-0.61042 -0.34673,-1.72827 -0.27381,-2.51815c0.52827,-5.64063 2.06399,-10.94449 3.86905,-16.29167c0.61161,-1.80952 1.23214,-3.9317 1.92708,-5.68601zM59.56503,221.16071c1.81563,-3.32292 4.46801,-9.7247 5.4625,-13.29613c2.34926,-8.4375 0.57202,-17.91964 0.11101,-26.53423c-0.21324,-3.70089 -0.48586,-7.35565 -0.21979,-11.05952c0.86577,-8.85863 4.5814,-17.71577 8.71845,-25.51458c0.86622,-1.63274 1.88482,-3.85491 2.81146,-5.34241c-3.40446,-0.31458 -21.11116,-1.70193 -22.0817,-4.5692l-0.11756,0.27768l0.04762,-0.24494c0.94003,-0.5686 1.69107,-0.20997 2.71161,-0.12932l0.27381,0.00938c4.66652,0.18304 17.19836,3.01964 20.96949,1.38646l0.17932,-0.23988c-0.82887,-1.34301 -9.75878,-2.25818 -10.39688,-3.27247c1.26682,-1.07158 9.65536,0.73467 11.56012,0.8192c0.58884,0.02604 1.2131,-0.38601 1.52039,-0.85774c-0.18646,-0.66711 -0.81518,-0.66949 -1.42887,-0.78869c-3.79747,-0.73795 -20.16622,-0.79167 -21.7253,-4.43958l0.01875,-0.34985c1.27187,-0.65193 10.56533,1.28899 12.8561,1.57366c4.04792,0.50298 8.10759,0.75625 12.18244,1.02113c3.39926,-3.67634 6.60818,-7.67262 10.10536,-11.28988c0.79435,-0.82158 1.49435,-1.9814 2.20923,-2.89524c-2.33497,-1.31042 -5.69717,-2.62024 -7.85342,-3.67039c-4.58705,-2.23408 -19.43259,-11.40268 -21.91577,-15.30759l-0.02411,-0.31979c0.84955,-0.21875 2.51682,0.69836 3.26429,1.14315c4.10342,2.44152 7.46399,5.48586 11.50982,8.06563c3.69077,2.35342 7.33839,3.83854 11.32708,5.59583c1.54524,0.6808 5.07455,2.24821 6.62262,2.41458l0.32679,-0.11086c-0.29196,-2.08214 -18.87961,-11.46711 -21.35149,-14.16384c-0.37128,-0.40506 -9.3881,-8.20536 -9.50223,-8.23914c-2.91086,5.48899 -6.3308,10.74077 -8.88601,16.43408c-2.62649,5.85208 -5.07932,11.79658 -6.82128,17.98408c-5.73393,20.36696 -3.9494,42.67381 2.56652,62.62917c3.71071,11.3631 7.02485,21.29167 4.96964,33.28125zM111.88333,49.18185c-2.5683,1.37827 -11.88318,7.10298 -12.51935,8.92783c-1.10521,3.17054 13.95685,21.07485 16.00789,23.37723c2.72589,3.10402 5.4436,5.93125 8.29643,8.90372c0.88408,0.92128 3.4628,3.54122 4.0878,4.45952c3.54405,-1.63289 7.11057,-3.21667 10.69851,-4.7506c-1.13363,-1.97768 -2.25625,-4.04732 -3.18527,-6.12842c-1.45015,-3.24866 -6.93318,-17.56592 -6.06964,-20.62768c0.03601,-0.12783 0.06741,-0.17872 0.12708,-0.3058l0.2494,-0.00967c1.9314,1.975 4.68006,12.18929 6.00283,15.35625c1.39182,3.33229 3.61563,7.73036 4.85357,11.03095c4.87589,-1.74479 10.68051,-3.0561 15.50342,-4.90387c-0.62649,-4.39539 -1.77381,-8.62723 -2.46726,-13.00417c-1.73065,-10.94673 -2.20536,-21.93125 -2.29762,-32.99628c-0.01339,-1.5881 0.0506,-3.82232 -2.13095,-3.49182c-5.36443,0.86652 -31.06949,8.66652 -33.92708,12.78467c-0.43571,0.62783 -0.2811,1.38363 -0.12649,2.08616c0.96414,4.38125 5.04003,13.01964 7.27336,17.13958c1.26399,2.3317 2.69286,4.57202 3.80238,6.98631c0.33393,0.72679 0.82262,1.70625 0.68274,2.51161l-0.2125,0.11101c-3.0692,-1.10357 -7.75893,-11.38899 -9.29271,-14.64405c-0.99613,-2.1506 -1.92693,-4.3308 -2.79107,-6.5378c-0.67574,-1.75625 -1.58973,-4.88259 -2.56548,-6.2747zM69.35818,90.04256c8.25268,7.02798 19.91815,14.62961 29.69583,19.55446c0.78437,0.42039 1.56726,0.82054 2.31577,1.30149c5.67351,-3.5067 11.03899,-7.63259 16.94583,-10.7881c0.74807,-0.3997 1.49048,-0.77039 2.14494,-1.31384c-2.50283,-4.02262 -7.18869,-8.36012 -10.44315,-12.01875c-4.27619,-4.83378 -8.25967,-9.91875 -11.92917,-15.22768c-0.80179,-1.15 -5.01652,-7.8631 -5.77068,-8.20134c-7.65714,8.36711 -17.12604,16.77738 -22.95937,26.69375zM109.65119,166.78125c1.22321,-3.32589 2.31161,-6.72321 3.91265,-9.88542c4.87366,-9.62961 12.12708,-18.05699 21.49122,-23.47411c10.27351,-5.94315 20.95238,-9.15015 32.43155,-11.75804c0.88839,-0.20179 2,-0.8811 2.59226,-1.59286l0.09673,-0.40491c-0.68304,-1.10759 -3.24405,-0.89911 -4.4494,-0.85461c-3.18601,0.23631 -6.21875,0.43318 -9.375,0.97262c-2.69643,0.46057 -5.08631,1.24598 -7.68869,1.92426c-21.42262,5.58393 -40.36726,23.71324 -40.67693,46.86622c-0.00327,0.25149 0.06548,0.47024 0.15298,0.70685l0.22887,0.02976c0.56399,-0.60714 0.9811,-1.74554 1.28378,-2.52976zM167.88095,109.96161c3.79613,-6.63839 10.70238,-13.65089 17.1622,-17.70744c2.38542,-1.49821 5.51935,-2.92039 7.75893,-4.52187c-3.61756,0.45 -7.72173,-0.62857 -11.48661,-0.17381c-2.7247,0.23408 -9.27381,0.33437 -10.92262,2.68452c-4.33929,6.18378 -8.58185,16.1869 -8.89137,23.83958c-0.01339,0.33497 0.16369,0.70164 0.31845,0.94077c2.63542,1.45372 5.09821,-3.35283 6.06101,-5.06176zM157.04911,78.09315c0.24256,0.73705 0.45833,1.44167 0.76935,2.15357c0.32887,-1.84152 0.47619,-3.87693 0.60863,-5.73571c0.90327,-12.5933 1.47619,-25.2189 4.1875,-37.59702c0.16667,-0.76057 0.74554,-3.27649 0.45833,-3.80223c-0.55804,-0.05923 -0.80506,-0.04345 -1.37054,-0.01607c-1.49851,0.15655 -5.70833,0.37872 -6.68899,1.53244c-0.70387,0.82619 -1.01339,3.21949 -1.14583,4.36786c-1.30655,11.33036 0.66369,22.93824 2.22768,34.16101c0.12946,0.92753 0.6994,4.09658 0.95387,4.93616zM119.60923,107.99866c2.81815,3.88244 8.13363,10.18051 11.60372,13.56771c2.17202,2.30893 3.14643,2.53214 5.93899,0.47009c0.20595,-0.15208 0.49807,-0.59182 0.39315,-0.87158c-1.88512,-4.52619 -6.63616,-14.87604 -9.18438,-18.57812l-0.29628,-0.06667c-3.23765,1.83899 -5.41592,3.42426 -8.45521,5.47857zM56.85997,219.28423c0.17098,-3.97917 -0.27202,-19.87649 -2.99851,-22.30208c0.03393,0.47619 0.23199,1.64137 0.34464,2.11905c0.65967,2.79911 0.89048,18.8378 2.42634,20.1875zM65.08676,87.8933c-2.33378,2.0128 -10.22887,14.51533 -10.4189,17.46562c1.55015,-1.66935 9.725,-14.69777 10.49509,-17.04717zM67.5128,85.09509c1.18661,-0.96592 1.99464,-1.98958 3.04405,-3.0814c4.30134,-4.475 8.65298,-8.87649 12.74628,-13.54911c0.44896,-0.5125 0.87857,-0.83705 1.24985,-1.43557l-0.01354,-0.32232l-0.16414,-0.08899c-5.59048,5.12232 -10.64673,10.17693 -15.34985,16.15342c-0.38601,0.49048 -1.55774,1.81622 -1.64673,2.31667zM164.85863,89.79048c-0.81845,0.11473 -3.15327,0.46726 -3.40327,1.0247c-0.96875,2.16086 -0.44494,9.34688 -0.44792,11.7317l0.13095,0.18393c0.38095,-0.3625 0.38988,-0.49345 0.55952,-0.98304c0.89583,-2.04167 4.95387,-10.53557 4.94048,-11.80833c-0.51488,-0.35804 -1.14732,-0.22545 -1.77976,-0.14896zM45.28839,157.91667c0.79643,-0.85565 0.70461,-12.13705 0.2247,-13.15417l-0.26265,-0.20015c-1.15074,1.89301 -1.12634,11.75908 0.03795,13.35432zM169.03869,114.47381c0.92262,-0.91012 5.23363,-7.67842 4.26935,-8.43943c-1.28423,1.35045 -4.95833,6.33943 -4.56399,8.24673c0.07143,0.05 0.22321,0.16801 0.29464,0.19271zM120.40685,132.94241c-4.07262,-2.86801 -8.12396,-5.68705 -12.09435,-8.69777c-1.0253,-0.77738 -4.76935,-3.62649 -5.7692,-3.7311c-1.76696,1.13884 -3.55461,3.29167 -5.15982,4.68363c2.3253,1.1067 4.9253,2.82307 7.18378,4.12842c3.80714,2.2006 7.79375,4.44449 11.56786,6.70015c0.24554,0.10446 0.59048,0.31875 0.77515,0.22307c1.34494,-0.69673 2.26429,-2.34524 3.49658,-3.3064zM175.32143,83.03839c2.10268,-0.02723 8.7381,-0.27753 10.04613,-1.75104l-0.10714,-0.20357c-0.18899,0.02039 -0.32738,0.01577 -0.49702,0.0814c-2.09821,0.27202 -8.9881,0.77024 -10.33929,1.56518l-0.06548,0.23958c0.44792,0.22411 0.36607,0.13884 0.9628,0.06845zM155.68452,229.05357c1.41369,-0.42708 6.1756,-2.24851 6.57143,-3.69345l-0.13988,-0.23661c-1.24702,0.59524 -5.80655,2.91964 -6.5506,3.69345zM83.28705,158.34524c-1.40193,0.61607 -7.31533,4.18006 -6.97009,5.8378c1.41905,-0.89881 5.68586,-4.31994 6.97961,-5.55804zM188.15327,27.30491l-0.3869,0.1381c0.33482,0.40967 3.15774,0.28006 3.78869,0.25595l0.28571,-0.07619l-0.11161,-0.17381c-1.0253,-0.15446 -2.52232,-0.17143 -3.57589,-0.14405zM51.52247,113.17396c-0.49405,0.9817 -1.32634,3.35223 -0.89643,4.36354c0.49955,-0.91845 1.39211,-3.40417 0.89643,-4.36354zM89.71652,155.68452c-1.09137,0.22173 -1.39926,0.2619 -2.21592,0.98363l0.03289,0.21429c0.5317,0.10863 0.54851,0.06845 1.05789,-0.07292c0.87173,-0.24702 1.29018,-0.33929 2.10193,-0.78274l0.1247,-0.22619c-0.40699,-0.21429 -0.64077,-0.14881 -1.10149,-0.11607zM185.14435,94.92946c-1.52976,1.16488 -5.34524,4.15268 -6.07589,5.7567l0.04762,0.27426l0.14137,0.00179c1.01488,-0.81711 5.73661,-4.94107 6.0625,-5.82991zM221.95982,32.4567c0.95089,1.1244 5.38839,1.89598 6.78274,1.7564c-1.2872,-0.6622 -5.4628,-1.86637 -6.78274,-1.7564zM111.58676,227.29613c0.68839,-0.83482 2.0878,-4.96429 1.74494,-5.9256c-0.73363,0.91667 -1.9942,4.85565 -1.74494,5.9256zM262.9375,60.50595c-1.64435,1.1436 -3.79464,3.3372 -5.21577,4.8128c-5.68304,5.90327 -11.30506,12.34152 -15.04762,19.67426c-0.34375,0.67411 -0.89137,1.7808 -1.00446,2.51696l0.18452,0.03512c1.72173,-2.19375 21.32589,-26.72887 21.34375,-26.8256zM94.59256,128.98408c-1.09673,0.78348 -3.30655,3.41488 -4.09524,4.48899c1.83021,0.71399 3.7869,1.32366 5.6622,1.9189c3.43497,1.09063 6.67247,2.62649 9.97604,4.05372c1.37768,0.59509 2.72961,1.3744 4.13869,1.88274c2.03363,0.67083 2.2314,0.7186 3.36771,-1.20446c-2.82619,-3.37217 -7.96756,-5.53185 -11.80089,-7.64152c-1.92679,-1.06057 -5.20417,-2.82113 -7.24851,-3.49836zM108.99821,146.69152c-3.72753,-3.42485 -12.54896,-6.60551 -17.5506,-7.6878c-1.59896,-0.34598 -4.13482,-0.39464 -5.57946,-0.85536c-0.53914,1.14568 -3.11801,5.93601 -3.82009,6.85193c9.69464,0.65952 14.05015,0.7756 23.34658,3.85238c2.60774,0.87054 2.4814,0.26488 3.60357,-2.16116zM73.32083,161.67411c4.61711,-3.28125 11.96815,-7.69792 17.6375,-8.14137c3.50565,-0.36458 6.97545,-0.18155 10.48036,0.23958c1.18214,0.14286 2.52545,0.59524 3.75089,0.75744c-3.5814,-3.84821 -19.55818,-5.4881 -24.86324,-5.38542c-3.86801,1.17857 -5.8817,8.93304 -7.00551,12.52976zM141.13423,96.87054c-4.12292,1.22411 -7.89777,1.77723 -5.60372,7.05506c1.84628,4.24762 3.54211,9.65565 5.95625,13.56696c0.50446,0.82396 0.84167,1.34092 1.81086,1.5939c0.53304,0.13914 1.14777,0.0997 1.625,-0.19375c0.30699,-0.18884 0.48527,-0.4375 0.55997,-0.79464c0.44643,-2.13542 -2.6692,-19.43155 -3.8689,-21.10015c-0.03065,-0.04256 -0.0692,-0.07857 -0.10387,-0.11786c-0.08333,-0.00461 -0.30655,-0.02693 -0.3756,-0.00952zM155.30952,115.9561c-0.19345,-1.88393 0.20387,-4.15804 0.2381,-5.83512c0.06696,-3.31518 0.86161,-15.16667 0.02232,-17.65402l-0.23958,-0.15997c-1.84375,0.49598 -7.17455,1.58065 -8.03036,3.35714c-0.55997,1.16235 2.39494,16.45952 3.12708,18.3564c1.06101,3.30565 1.86607,2.67961 4.88244,1.93557zM96.04152,59.59628c-0.49688,0.4506 -1.05506,0.97515 -1.07619,1.69777c-0.10893,3.72262 12.43943,19.12396 15.39048,22.55312c2.12842,2.48646 4.37068,4.87292 6.71994,7.15179c1.69494,1.62411 5.05685,4.8369 7.34717,5.26964l0.3808,0.06295c1.05536,-1.22247 -5.51652,-7.52277 -6.54807,-8.56086c-4.52009,-4.55387 -8.69405,-9.43854 -12.48705,-14.61354c-1.54985,-2.09807 -3.01503,-4.31562 -4.48318,-6.46042c-1.10342,-1.6119 -3.3878,-6.87247 -5.2439,-7.10045zM114.62083,111.15134c-2.41399,1.14688 -5.29702,3.62158 -6.86756,5.72738c2.59479,2.56815 11.66637,10.11637 14.63839,11.70134c0.94301,0.43036 1.87932,0.94226 2.92827,0.54717c0.97351,-0.36667 2.20298,-1.47545 2.66146,-2.42366c0.20417,-0.42247 0.14405,-0.69271 -0.01012,-1.0994c-0.93393,-2.46339 -11.82455,-13.81815 -13.35045,-14.45283z" fill="#7588fe"/><path d="M221.95982,32.4567c1.31994,-0.10997 5.49554,1.0942 6.78274,1.7564c-1.39435,0.13958 -5.83185,-0.63199 -6.78274,-1.7564z" fill-opacity="0.01176" fill="#010028"/><path d="M188.15327,27.30491c1.05357,-0.02738 2.5506,-0.01042 3.57589,0.14405l0.11161,0.17381l-0.28571,0.07619c-0.63095,0.02411 -3.45387,0.15372 -3.78869,-0.25595z" fill-opacity="0.21177" fill="#7588fe"/></g></svg></svg>